<?xml version="1.0" encoding="UTF-8"?>
<svg version="1.1" viewBox="0 0 1600 1066" width="6240" height="4160" xmlns="http://www.w3.org/2000/svg">
<path transform="translate(0)" d="m0 0h1600v1066h-1600z" fill="#D1D1D1"/>
<path transform="translate(782,63)" d="m0 0h9l13 4 7 1 1 1 23 3h32l20-1 19-3 8-1 9 3v2h3l5 7v6l-4 16-6 17-3 13-4 10-4 11-4 9-5 16-5 10-7 21-2 4h-2l-1 6h-2v3l10-1 1-1h5v-2h2l1-5 11-27 14-39 12-36 3-19 5 5v9l-8 26-8 23-9 24-5 14-4 10-3 10 5-2 2-3h3l1-5 5-16h2l3-11 6-18 4-10 10-29 3-17 7 4 4 4 7 2 3 2v2h5l9 4 7 3 31 15 16 8 23 11v2l9 3v2l7 2v2l4 1 10 6v2l5 2 10 9 8 8 15 20 13 16 7 6-2 1-8-3-10 4-8 5-6 7-9 11-4 6-3 5h-2l-1 4-8 15-4 15-2 18 2 60 2 27 7 49 5 23 3 10 8 18 4 3-2 4-13 19-8 12-2 11v42l-15 11-5 3-4 9-8 1-14 5-5-17-10-2-11-1 2 10 9 54 2 7 5 25 4 21 2 17v8l-2 10-2 5 20-8 17-5 24-5 8-1v12l-3 22-7 41-3 6-6 8-3 1-2 4-12 9-13 4-15 2-27-1-16 2-14 3-15 5-20 4-29 1-19 3-19 5h-2l3 12 28-7 36-4 16-2 20-4 16-4 21-2h18l16-3 10-4 3-1-1 8-5 4-13 4-9 1-26 1-21 3-18 4-26 4-33 4-26 6h-3l4 16 2 3 20-4 27-4 21-3 40-7 18-2 20-1 16-3 8-3 7-5 1 3v9l-5 5-14 7-11 2-34 1-15 3-22 5-61 8-13 3-7 2-9 2-2 1-24 3-20 4h-7l-3-8-10-34-4-14-42-6-56-5-31-4-4 26-4 5-7 3h-11l-1-1v-13l-6-2v-2h-4v-2h-4v-2l-9-3v-2l-9-3-4-2-2-4v-9l20 5 21 9 2-9 2-12-6-2-14-5-26-5-2-7h9l12 2 18 5 11 3 3-10-19-2-10-4-6-4-11-1h-15l-10-7-5-5-5-9-3-19v-28l1-42 1-21 1-57 3-32 3-24 3-28 4-30 5-30v-4l-4 5 2-11 6-21 1-8 1-20 4-1 5-14 5-13v-32l-2-14-8-24-10-24-11-33-13-28-17-35-1-4h-2l-3-5-4-10 1-4 15-14 13-11 15-10 24-13 26-12 16-9 10-6 19-9 21-6 6-4 16-2 11-3 4-2 2 36v30l2 5h2l1 2 1-16v-24l-1-17v-20l3-5 2 1 1 28 1 12v45l3 3 11 2-4-11v-24l1-5v-16l-2-24v-27z" fill="#840825"/>
<path transform="translate(1446)" d="m0 0h154v1066h-146l-2-7-1-8-5-13-1-13-3-3v-6l2-6-5-5-4-3v-2l-3-1-1-5v-11l-5-6-2-8-6-5-1-4 1-3v-6l-5-1v-2h-2l-2-7-6-2-6-5-2-9-2-1v-2l-7 2-5-3-2-12-3-4-1-4-4-13v-6l-4-6v-14l-1-8-4-5v-2l-5 2-2-5-7-2-2-6-1-4 1-4-3-8 2-10-2-4-2-1v-2l-4-2-1-7-2-5 1-8 1-3-1-2v-9l-2-1v-9l-3-5v-7h-2l-3-12-2-5 1-22-1-12 1-3v-8l-1-2-1-15 1-7-3-1v-5h3v-5l-3-3 2-7h3l2-6-1-7-3-6v-2l-3-1-2-5 1-6 4-3 4-1 3-9-3 1-2-3 1-3-2-2-4 4-2 11-4 10-8 9-11 14-11 12-11 14-7 9-9 10-11 10-16 10-29 16-17 10-24 13-16 9-9 3-25 1-1 2v-2l-21 5-9 1v-2l17-8 15-7 12-9 8-3h3l-1-11 2-5 7-3 12 1 12-3v-2l6-1v-2l11-5 10-6h2l2-4h2l2-9 7-5h2l2-4 8-7 12-4h2v-2l5-3 3-3 8-5h3v-2l9-5 10-7h2v-2l5-3 7-1 8-5 10-5 6-4h2l2-10 3-9-10 3h-12l2-4 5-5 5-4 1-2-3-1 1-5 8-9 2-6-15 10-15 7-12 2-6-1v-5l17-5h6l1-5-3-4-5-3-3-5 1-5 3-7 5-7h2l2-8 9-4-4-4-2-6 2-2 6 9 7 14 8 24 1-4 4-4-1-5v-9l-1-7 1-2h2l-1-11-2-7v-8l4-3-1-12-1-8 5-7 1-14 1-7 4-1 1-3-5-5v-4h4l1-2h2v-2l3-1 6 1 3-4-1-4-6-2v-2l-2-1 6-5v-9h2v-6l-4-2v-3l6-5 1-3 2-2 2-9 2-3v-10l3-4h2l1-6 1-2 5-2 6-12-7 2v-2l-4-1-1-8v-3l4 1v3l4 1 2-7 5-6 4-6-1-17 7-8 4-2v2l6-2 4-9 1-9 1-3 2-8 5-11 1-9 6-13 3-2 2-9-1-7-2-5 1-4v-9l7-13 3-5v-2l6-1h4l1-9 2-7 5-12 4-6 4-7 1-1 1-9 2-5h2l1-6-3-8-2-4-5-5v-8l1-3v-8l3-7 1-8 1-4-1-4h-2l-3-9-6-4v-6l-3-7z" fill="#B7B5B6"/>
<path transform="translate(717,109)" d="m0 0h3l-1 6-5 12-3 15-3 7h3l1-3h3l1 3h-2l1 2 2 12 5 9-2 4v9l-6 4h-3l-3 5-2 2-6 12-3 9 3 4 4 12 2 14 1 17v10l1 5 2 2 1 8 5 5 2 4-1 4-3 3h-2l-1 4 5 1v5h-1l1 11h2l4 9v2l2 1 1 5h2l2 7 3 1v3h3v3l4 2 2 4 6 2 3-1 2 1v-5l7-2 5 5-1 3 6 3 8-4-4-2 2-3-1-4v-5l1-3-4-2-1-3v-7l2-2v2h3l-1-2 4-2-1-1h-5l2-5 4-1 3 1 1 4-1 3h-2v2l4-2v-8l-1-2h-6l-5 5-1 3-5-1-4-6-5-6-2-1v-3h-2l-4-11-1-8-1-3v-14l4-4 2 1v2l3-1 3 5 7 8 1 2h2l2 4 3 2v2h2v2h2v-2h3l-3-10v-9l-3-8v-3h-2l-3-12-1-6-1-4h-8l-3-10-1-7v-16l-5-22-7-14 1-2h3l3 3v2l3 1 2 2 6 2v3l3 1v5h2l-1 5-3 1-1 5 3 8 2 1 2 7 9 17 2 6 3 5v2l7 1-3-3 4-2-4-1-2-5 8-4-1-4-3-3h5v-3l-7 1-3-3v-11l5 1 10-2h-5l2-2 5-1 2 1 1-7-5 1-2-1v-2l5-2-4-1-2-7h-7l-4 5-4-2-1-1v3l-5-1-5-7v-2l12-1 12 1 3 1-1-2-3-1v-6l4 2-1-4 9 3v-5l-2-1-10 1-3-7-2-8v-22l1-20 5-2 10 1 10 2 12 2 6 5 4 1 10 1 5 1 2-1 2 2v3l-5 1-4-2v-2h-2l-1 2-1-2-3 2-2 10-6 7-1 4 4 1v3l-2 2h-4l1 5 6 2v2l9-1 1-1h8l1 9 2 8v4l-4 2-4 8-9 3-1 7-5 4-6 3h-3l-2 7-1 5-2 2h2l-1 4-6 4-4 8v2l3 1v2h2l3-10 2-3v10h-2l1 2v6l-5 5-5 4h-2v4l4 1 7-6 1-4 14 1v1l-10 1 4 10 3 6 5 4 4 5-1 8-9 49-6 35-8 62-4 37 1 3-1 5-1 3 5 1 2-1-1 3 3 1 1-3 5-1v2l5 2v2l-7-1-6 3-1 9 2 4 2 1h7l5-6 1 3-3 6-3 2-9-1-2-1 1 5-1 3v14l2 9-1 5 4 9v9h-6l-4 1-2-8 1-2-6 2v9l1 2h-2l1 8h-2v28l-3 53-1 44v44l3 47v5l-9 3h-3l-1 3-6 1-2-6h-2l-1 4 1 1 1 7 11 3h12l2 7 5 41 3 15-1 6h-2l-1-2-2 2v-2h-3l-1 2v-3h-2v2h-2l-1-2-2 1-8-1-5-1h-8l-4-1-9-1h-9v-2l-5 1h-10l-13-1-1 1-15-1-23-3-4 26-4 5-7 3h-11l-1-1v-13l-6-2v-2h-4v-2h-4v-2l-9-3v-2l-9-3-4-2-2-4v-9l20 5 21 9 2-9 2-12-6-2-14-5-26-5-2-7h9l12 2 18 5 11 3 3-10-19-2-10-4-6-4-11-1h-15l-10-7-5-5-5-9-3-19v-28l1-42 1-21 1-57 3-32 3-24 3-28 4-30 5-30v-4l-4 5 2-11 6-21 1-8 1-20 4-1 5-14 5-13v-32l-2-14-8-24-10-24-11-33-13-28-10-21 1-2 3 3v4l3-1v-3l-4-2v-2h2l1-3 1-1-4-1-3-5 2-1h1l-2-2-5-1 3-6 6-1 2 2v6l3 1 2 5 6 2 2-2h3l1-6 3-3 2-6 1-10-2-3v-9l-2-6 3-5 7 1 7 10v3l2 1 2 5v4h2l1 7 4 10 3 17 2 1v2l2 1-1 6 2 5h2v-2l5-1v-5h7v-3h3l2-2 8-1v-3l4-4 3-4 2-1 1-5-4-4-3-1-1 2-3-2 1-6 4-6h3l2-4 5-2 2-4 4-5 5-17 3-12 5-11 4-8 7-10 7-12z" fill="#840825"/>
<path transform="translate(792,117)" d="m0 0 11 1 10 2 12 2 6 5 4 1 10 1 5 1 2-1 2 2v3l-5 1-4-2v-2h-2l-1 2-1-2-3 2-2 10-6 7-1 4 4 1v3l-2 2h-4l1 5 6 2v2l9-1 1-1h8l1 9 2 8v4l-4 2-4 8-9 3-1 7-5 4-6 3h-3l-2 7-1 5-2 2h2l-1 4-6 4-4 8v2l3 1v2h2l3-10 2-3v10h-2l1 2v6l-5 5-5 4h-2v4l4 1 7-6 1-4 14 1v1l-10 1 4 10 3 6 5 4 4 5-1 8-9 49-6 35-8 62-4 37 1 3-1 5-1 3 5 1 2-1-1 3 3 1 1-3 5-1v2l5 2v2l-7-1-6 3-1 9 2 4 2 1h7l5-6 1 3-3 6-3 2-9-1-2-1 1 5-1 3v14l2 9-1 5 4 9v9h-6l-4 1-2-8 1-2-6 2v9l1 2h-2l1 8h-2v28l-3 53-1 44v44l3 47v5l-9 3h-3l-1 3-6 1-2-6h-2l-1 4 1 1 1 7 11 3h12l2 7 5 41 3 15-1 6h-2l-1-2-2 2v-2h-3l-1 2v-3h-2v2h-2l-1-2-2 1-8-1-5-1h-8l-4-1-9-1h-9v-2l-5 1h-10l-15-1-4-1-19-2-11-2 1-8 8-16 9-10 3-4h2l1-4-8-1-3 4-6-2v-2l6 1-3-4 1-4 6 1 8 5h2l5-13 2-7 5-2h3v-2l-6-2v-9l1-18h-2l-4-8 2-1 3 1v-3h-2l-1-9-7 6-3 6-2 10-2 4-5 2 2-11 1-6v-7l3-11 5-16 2-4 10 1 1-10h-3l-2 4-4 2 1-9 1-2h2l3-9 4-11h2v-10l2-9 3-3 2-21 1-4h3l-1-10 6-30 4-15 2-17 5-18 4-19 7-38 6-36 5-26 6-45 3-18 1-10h2l-1-5 5-28h2l1-2-2-1v-3h2v-2h-2l1-7h2v-2l-2-1v-4l1-2v-14l3-31 1-7 4 1 1-2h2v-3l-6 1-1-3 1-12 3-5 6-4 5-6 2-7-1-4 3-4h-5l-6 3h-4l1-5 10-8 2-6-7 6-5 3v-8l1-6 5-1 3-2 3-5 3-1v-2l-5 1-3 1h-3l1-5 1-2h2l6-12h-10l-2-1-1 5-1 4-1 6-8 2h-5l-3-7-2-8v-22l1-20z" fill="#3B0009"/>
<path transform="translate(762,85)" d="m0 0 2 1 1 28 1 12v45l3 3 11 2-4-11v-4l6-2 4 1 2 8-1 2h2l1 4 1 2 12-2 2 2-1 5h-5l-4-3 1 4-3-1v5l4 1-1 2-18-1-5 1-4-1 5 8 5 2v-3l2 1 3 2 2-4 2-2h7l2 2v6h5l-1 2-5 1v2l8-1-2 8-6 1h6l-4 2-11 2h-3v9l3 2h6v3l-4 1 3 2 1 5-8 3 1 5 5 1-4 2 5 2-3 2-5-1-4-4-3-5-2-6-8-16-1-3v-4l-3-1-3-9 2-5 3-1 1-4h-2l-1-5-2-1-1-3-7-2-3-3v-2l-3-1v-2h-3l1 5 5 9 4 14 2 11v17l3 15 5-1 3 1 3 6v7l2 5v4h2l4 11v9l2 10h-3v2h-2v-2h-2l-1-2-3-2-1-4h-4l-2-6-3-1-4-4-1-3-5-2-2 3v16l1 5 3 11 1 4h2v3l3 1 7 8 1 3 5 2 1-5 5-4h6l2 5v6l-2 2h-3v-2h2v-7l-7 1v3l5-1-1 4-3 2 1 2-5-1v7l2 4 4 1-2 3-1 5 3 1-2 1 2 3-3 1 4 4-10 4-6-4 1-4-4-3-7 1v5l-6 1-6-3-3-5-2-1v-3h-3l-1-3-3-3-1-5h-2l-4-8-3-7v-2h-2l-2-5v-7l2-4-5-1 1-4 5-4v-5l-5-4-2-3v-8l-3-1-1-8v-13l-2-21-2-9-4-10-2-4 7-16 3-5h2l2-5 8-3 1-1v-10l2-4-5-8-2-12v-4h-2l-1 2h-3l4-17 3-10 4-9-1-3-6 5-10 17-6 9-5 13-3 7-4 17-4 9h-2l-2 4-8 8-3 1-4 7-1 4h4l5 1 3 4-2 5-4 5-3 4h-2v3l-7 1-1 3-5-1v3l-3 1-4-1 1 6-4 1-2-1v2h-2v-2l-2-1-1-5v-4-2l-3-1-3-17-2-4v-5l-2-1v-7h-2l-5-13-6-8v-2l-7-1-2 6 2 5v10l2 4-1 10-4 6-3 7-6 3-6-3v-2l-2-1 1-2-4-1v-6l-5-1h-2l-1 4-1 1 6 2 1 5-3-1 3 4 3 1-2 4h-2v2l5 2-1 4h-3l-2-5-4-4-6-12v-2h-2l-3-5-4-10 1-4 15-14 13-11 15-10 24-13 26-12 16-9 10-6 19-9 21-6 6-4 16-2 11-3 4-2 2 36v30l2 5h2l1 2 1-16v-24l-1-17v-20z" fill="#BE3046"/>
<path transform="translate(617,341)" d="m0 0 2 2 6 19 2 14v32l-5 13-5 14-4 3-1 19-3 15-6 21-1 5-8 13-7 10-6 11-10 12-5 3-4 13-8 16-10 16-5 5-5 11-2 7h-2l-2 5-3 4-5 13-8 13-6 9-5 12h-2l-3 9-11 16-8 12-11 15-14 20-13 18-8 10-7 11-7 10-4 5-11 17-6 12-5 16-10 18-9 12-5 9-4 4-1 4-4 5-2 5-1-2h-2v4l-9 3-1 2h-2l-3 9h-3l-7-3v-2l-6-2-13-6-16-5-24-7-6-3-7-21 2-2 5 5 7 4 13 4 7 3 5 2h3l3-3v4h2v-8l3 1 1-2 1 3v2l2-3 1 4v3l3 3 6-6-1 6 3-2 3-6h-9l-1-2-5-2 3-1h4l1-4 4-3-2-2-7-2-6-4 1-3h2v-2l7-4 5-3 6-8 4-4 3-5 10-6 15-8 8-10 5-10 5-5v-7l4-6h2l2-4 4-2 3-9 9-5v-8l2-4h2l2-5 4-8 4-6 6-12h2l1-4 5-5 16-8 11-2v-2l9-4v-3l-12-4-3-3-10 1 1-4 5-5 11-4v3l4 1 9-2v-6l6-2 5-1 5-2 2-4 8-7 4-7 8-4-1-3-10-4-5-4-6-9v-2l-5-2-5-4-7-8-8-16 1-2 6 9 5 4v2l6 2 5 5 3 8 9 3 5 5 1 3h2v2l14 4-1-9-2-12-1-8 2-16 2-5h2v-12l2-5v-8l6-22 5-9v-11l-1-11 3 1 5 12 2 6v7l-1 4v9l5 17 2 4h5v-2h2l3-11 3-14v-13l1-2 1-12 2-3-1-6 1-7 5-6 2-12 2-4 2-1h8l2-7 3-3 2-7-1-4 3-2 6-18v-4h-3l-1-3 8-18 1-4-3 1-1-7v-3h2v-6l3-7 5-1 3-6 1-10-1-11z" fill="#B6B5B6"/>
<path transform="translate(472,349)" d="m0 0 4 2 3 7v8l2 1 2-1 2-7h3l2 8 4 6v2l6 2h5v-4l-1-5 7-3 5 2 2 2-1 11 10 21 8 16 5 11v6l-5-1-8-5-3-1 2 6 6 11 3 9 1 5 6 9 1 8-3 1-8-5-11 1v-3l3-5-4-1-3-7 1-7-3-12-4-21-3-7v-3l-5-1 1 10 3 9 1 14 1 15v14l2 7v7l-2 1-5-4-4-8-6-20-9-20-5-6-3-1-2 2 6 11 3 9 1 17-4 2 5 5 2 10 5 14 3 5 5 8 10 8 2 1 13 1 1 3h-2l-1 3-11 5v5l-1 1h-5l-12-9-8-4-7-2-7-7-10-15-6-8 1-8 2-3-5-8-5 2-4 4 6 6v11l4 11 3 5 1 4 4 4 2 5-4 4-9-3-8-7-4 1-7 1-1-4 1-4-6-4 1 5 3 6-3 2-10 2-6 10 1 3 10 5 11 8 4 4 1 8 9 2 3 4v2h2l2 5-2 7-4 3h-3l-4 10 1 10-3 3-13-4-3-4-1-9-3-9-4-2v-5l-3-4-4-19-1-2v-7l-2-1-1-11 1-2-2-1h2v-7l2-4v-35l4-8v-9l-2-4 1-6 2-5 1-1-1-2 9-16 5-5 5-9 2-2 3-7 8-14 9-12 5 1-2-4 1-5 6-9 6-11z" fill="#ECECED"/>
<path transform="translate(1195,569)" d="m0 0 9 1 3 1v2l9 2 19 9 36 15 14 5 16 4 10-1v2l-2 1h-11l-19-1h-10v2l-5 2h-11l-2 1-3 9-5 2-4-1 2-6 2-4-9 1-10 7-5 5-4 12-6 10-3 2h-6l-4-3h-21l-7-1-6-1-8-3h-14l-6 5-7 4-8 1-4 5-12 4-2 4h-2l-1 5-4 8h-2v2l-3 2h-6l-4-5-2-10-3-1-2 7-2 6-11 1-3-3-1 7-10 2v3h-2v2l-8 1-2-3-2-12-2-10-4-21-4-25-1-10h11l10 2 3 8 3 9 16-6h4l4-8 14-10 10-6 17-9 3-1 13-1 4-6 9-6 11-4 17-2h13l10 3 1-4z" fill="#ECECED"/>
<path transform="translate(1272,608)" d="m0 0h11l25 2-1 3-10 6-10 5-1 1-7 1-2 2h-3v2l-6 4-11 7-4 1v2l-11 6h-2l-2 4-4 1v2l-14 5-9 8-4 4-5 3-3 9-6 5-6 4-13 6h-2v2l-6 1v2l-7 3-6 1-12-1-6 3-1 4v6l1 3-1 2-11 4-9 7-14 7-19 9h-2v2l-11 4-10 3-16 6h-2l3-15-1-18-3-19-5-23 1-3v2l8-1v-2h2v-3l10-2v-10l5 5 10-1 2-9 2-3 4 1 3 12 2 2h6l3-1v-2h2l1-5 4-8h2l1-4 3-2 10-2 2-4 4-2 7-2 10-6 2-2h14l10 4h7l4 1h21l4 3h6l5-5 5-11 3-8 7-7 11-6h6l2 2-3 3-2 6h5l3-2 3-9 7-1h8l3-1v-2z" fill="#D2D1D1"/>
<path transform="translate(554,199)" d="m0 0h2l5 11 1 4h2l14 28 13 28 8 19 5 16 1 9-2 1-5-5-12-19-7-12-8-11h-3l3 7 7 14 6 15 8 16 4 9-9-3-4-2 2 5 4 3v2h2l5 9v5l-5 2v-2l-6-2-3-3v-2h-2l-2-4-2-1v-2l-5-2-5-9-1-5 1-6-2-9v-8l-4-9-1-2-2-9-2-17 1-5v-7l-3-17v-5h-2l1 4-2 9-1 10v22l2 20 7 22 3 3-1 3v11l7 14-1 8-1 2 6 11 3 5v7l-3 2-8-1 1 4 1 1 1 8-1 1-7-1-1-6-4-2-4-3v-3l-6-2-3-5-6-7-6-9-6-3-5-5-6-15v-2h-2v-2l-5 2-2 5-8 7-12-5 2-5 12-23 8-16 13-24 13-22 6-11 14-28z" fill="#ECECED"/>
<path transform="translate(933,316)" d="m0 0 15 2 13 3 15 3 6 4 1-4 19 2 4 2 1 4-4 30-2 6-16-1-7-2-1-1v-12l-33-7h-3l-3 15-2 17 30 6 3 2h10l5 2v2h2l8 11 2 5-1 16-6 36-2 6-12 9-4 2-12-1-30-5-5-3-3-2-1 6-5 1-19-4-1-4 2-15 3-23 1-1h10l15 3-1 14 20 3 17 3h2l4-27v-8l-32-6-15-3-6-7-7-11v-9l3-20 2-12 3-12v-3z" fill="#840825"/>
<path transform="translate(792,117)" d="m0 0 11 1 10 2 12 2 6 5 4 1 10 1 5 1 2-1 2 2v3l-5 1-4-2v-2h-2l-1 2-1-2-3 2-2 10-6 7-1 4 4 1v3l-2 2h-4l1 5 6 2v2l9-1 1-1h8l1 9 2 8v4l-4 2-4 8-9 3-1 7-5 4-6 3h-3l-2 7-1 5-2 2h2l-1 4-6 4-4 8v2l3 1v2h2l3-10 2-3v10h-2l1 2v6l-5 5-5 4h-2v4l4 1 7-6 1-4 14 1v1l-10 1 4 10 3 6 5 4 4 5-1 8-9 49-3 17-1-4-9-1-4 1 2-7 3-1 1-7h-2v-12l-8-5-1-12-4 3h-6l1-4v-3-14l3-31 1-7 4 1 1-2h2v-3l-6 1-1-3 1-12 3-5 6-4 5-6 2-7-1-4 3-4h-5l-6 3h-4l1-5 10-8 2-6-7 6-5 3v-8l1-6 5-1 3-2 3-5 3-1v-2l-5 1-3 1h-3l1-5 1-2h2l6-12h-10l-2-1-1 5-1 4-1 6-8 2h-5l-3-7-2-8v-22l1-20z" fill="#4F0010"/>
<path transform="translate(373,568)" d="m0 0h3l1 4h2l5 8 9 5 5 8 5 10v2h2l5 9 8 15 2 3-1 2h-2v2l-3 2-13 1-9 1 3 5v5h2l3 4 5 2 2 4-2 4 3 5-1 4-8 2v5h2v2l9 1-2 5-9 2-2-3-12 2h-6l1 4 3 1-1 5-4-2-2-4 1-1-8-3-4-4-4-9v-10l1-3v-7l-3-15-1-14v-12l1-7 1-1 1-9 3-5 1-8 3-7 3-8z" fill="#ECECED"/>
<path transform="translate(1070,866)" d="m0 0h1l1 17 1 5-7 6-11 4-13 2-20 1-13 1-22 4-17 3-13 2-22 3-19 3-21 4-3-7-2-7v-6l24-6 19-3 33-4 22-4 20-4 17-1 20-1 15-3 8-4z" fill="#BAB2B4"/>
<path transform="translate(1143,234)" d="m0 0 4 4v2l5-1 6 5 1 7 3 4-1 2-5-5v6l2 2v6h2v3h2l1 5 5 1v2h2l-2 4-5 1 2 7-3 4h-2v17l-1 13-9 2-4 2v-2h-2l1-13-2-7 1-5-2-1-3-11-5-2-4 2-3 4-3 12-2 3-5-1v-2l-5-2-5-5-4 1-5 3-2-1-2 5-4 9-3 1v-8l4-15 8-15 2-4h2l1-4 3-3 4-7 8-9 7-8 13-7z" fill="#ECEBEC"/>
<path transform="translate(931,312)" d="m0 0 13 1 35 7v-2l31 5 1 1-1 16-4 29-1 4-13-1-18-3-2-1 1-14-10-1-18-4-2-1-3 24-1 2 10 1 37 7 10 14 4 6v8l-5 33v6l-2 7-2 9-8 6-13 8-14-2-33-6-1 4-31-5-1-1 1-12 6-38 1-2 22 3 11 2-1 11-1 4 11 1 20 3 5-27-10-1-35-6-3-1-14-21 2-18 6-40 9-7 4-3h2v-2zm2 4-14 10-3 2-1 9-3 9-2 18-2 11v9l9 14 4 4 21 4 26 5v8l-4 27-14-2-23-4h-2l1-14-15-3h-10l-1 1-3 23-2 16 1 3 19 4 5-1 1-6 5 4 15 3 25 4 7-1 10-7 5-4 5-28 3-23-1-9-4-6-5-7h-2v-2l-5-2h-10l-3-2-30-6 2-17 3-15 14 2 22 5v12l2 2 14 2h8l2-6 4-31-1-3-4-2-19-2-1 4-6-4-35-7z" fill="#C9C0C2"/>
<path transform="translate(740,633)" d="m0 0h2v5l1-2 4 2 10 17 2 7-1 6-4-4-6-7-5-3-2 5-1 5-1 28-2 13-1 23-3 22v14l6 7 5 7 1 3v-36h2l1 13 3 5 4 11 2 3 4 1-1 5-9 17-3 3-5-1-2 2h-4v3l-4 1-4-1v-2l-6-2v-9l1-18h-2l-4-8 2-1 3 1v-3h-2l-1-9-7 6-3 6-2 10-2 4-5 2 2-11 1-6v-7l3-11 5-16 2-4 10 1 1-10h-3l-2 4-4 2 1-9 1-2h2l3-9 4-11h2v-10l2-9 3-3 2-21 1-4h3l-1-10z" fill="#500011"/>
<path transform="translate(828,202)" d="m0 0h3v3h2l-1 2-5 2-1 2h-2v2h5l-3 2h-3l-2 7-1 5-2 2h2l-1 4-6 4-4 8v2l3 1v2h2l3-10 2-3v10h-2l1 2v6l-5 5-5 4h-2v4l4 1 7-6 1-4 14 1v1l-10 1 4 10 3 6 5 4 4 5-1 8-9 49-3 17-1-4-9-1-4 1 2-7 3-1 1-7h-2v-12l-8-5-1-12-4 3h-6l1-4v-3-14l3-31 1-7 4 1 1-2h2v-3l-6 1-1-3 1-12 3-5 6-4 5-6 2-7-1-4 2-3h3l-1-4z" fill="#4F0010"/>
<path transform="translate(705,839)" d="m0 0 1 3-2 23 1 1 1-16 2 1v10l-1 2h2v-6l2-2 1 2v7l2-10h1l1 4 2-6h1l1 4h4l2 1v4h2l1-4h3l3 1 2-1v6h2v-7l3 1h4 2l1 2 3-3 1 2 4 2 5-1 2 2h4l6 1 1 3 1-2 2 1-1 7h2v-7l1-5 2 1v7l1 1v-8l1-5h2l1 4 2-3 2 3 1-2h2v6l2-7 3 1 3-4v6l-1 2h2l1-9 2-2 4 27 1 6-1 3h-2l-1-2-2 2v-2h-3l-1 2v-3h-2v2h-2l-1-2-2 1-8-1-5-1h-8l-4-1-9-1h-9v-2l-5 1h-10l-15-1-4-1-19-2-11-2 1-8 8-16z" fill="#4F0010"/>
<path transform="translate(953,101)" d="m0 0 7 4 4 4 7 2 3 2v2h5l9 4 7 3 31 15 16 8 23 11v2l9 3v2l7 2v2l4 1 10 6 3 5 7 7 2 4h-2v2l-4 1-2-1v-3h2v-3h-7l-1-3-3 4h3l-1 4-5-1v-2h-2l2-5 2-6-3 1-2-1-1 3-3 1v-6l1-1-3-1-2 2h-6l2-8h-2l-1 4-6-1v-4l-3 1-9-4-10-4v-2l-6-1-12-7-9-4-16-7-15-8h-2l4 3h-3l-1 11-2 9-3 7-2 3h-2l-1 4-2 2v4l-3-1v-2l-7 1-5 10h-2v3l-3 1-1-2 2-1v-3h2l2-5 3-6 8-4 4-5 4-12v-11h-2l1 3-2 4-2 7h-3l3-12 1-2-3-1-1 5-4 5-1 5-6 1 3-9 3-11-3-2 4-2 3-6-3-1 3-1 1-4-13-3v2l6 1-4 1-3-1 1-6z" fill="#BD3046"/>
<path transform="translate(1243,395)" d="m0 0 5 1 2 12v15l-1 3-7 5-2 3-1 6 6-2 4-2 4 2 1 7-2 2-4 8-1 10-1 7v7l1 6-4 2-4-1-9 2-7-1-2-3 1-4 2-4 5-5v-4l-3-1-2-3-5 1-7 7-5 3-3 3-6 1v-4l5-7 8-5h2l1-4-14-1-2-1v-3l4-2 2-2 9-6 10-8 8-10-7 1-6 1-3-1v-2l14-7 4-5 9-16z" fill="#EDEDEE"/>
<path transform="translate(1098,414)" d="m0 0 3 3 4 13 2 17 5 16 3 14 7 21h2l1-2 6 14 6 7 10 4 5 9 11 2 9 4h5l2 8 1 12h6l14-7v-3l4-1 5 9 3 2h24l-3 2-16 2-10 1 1 4 9 6 8 6 4 4-6-2-13-5-3-1v-2l-9-2-8-3-13 1-5-8-11-10-11-9-14-14-5-4-2-3-10-3-2 1v-2l-4-2-6-12-4-9-1-7h3l4 6 8 7 1 2-1-5-10-16-7-22-1-5-1-23-1-13z" fill="#B6B4B6"/>
<path transform="translate(1074,851)" d="m0 0 2 1-3 5-1 6-4 1-10 4-16 3h-18l-15 1-15 3-17 4-24 4-14 1-29 4-20 5h-3l-3-8v-4l21-6 19-3 30-1 22-5 15-5 17-3 11-1 27 1 17-3 10-3z" fill="#BDB5B7"/>
<path transform="translate(941,91)" d="m0 0 5 5v9l-8 26-8 23-9 24-5 14-4 10-3 10 5-2 2-3h3l1-5 5-16h2l3-11 6-18 4-10 11-32h4l-3-1v-2l11 2 2 1-1 8 1 2-5 5 1 2-3 10-3 8 5 2-3 4 1 2-5 1 4 2-5 3 4 1-5 3 4 1-4 3-3 5h-2l1 3-3 2-1 2-4 1 3 2-7 2v3l3-1v3l-4 1-2 4-8 8-1 2h-4v4h-2v-2l-5 5v2l-9 3-1 2-6 1-1-2h-4l-1 3-1-2-4 2v-3l8-3h5v-2h2l1-5 11-27 14-39 12-36z" fill="#880B27"/>
<path transform="translate(629,546)" d="m0 0h2l-1 7-5 26-4 13-2 3-5 18-3 11-4 27-2 17v30l1 21v12l-1 11-9-2-3-1-1-29v-45l3-28 3-14 14-39 12-29z" fill="#CECBCB"/>
<path transform="translate(1208,371)" d="m0 0 4 2 2 4v12l-2 5h-2l-1 6h-2l-2 9 6-1 7-3 1 3-6 13-2 4-5 2-4 10h-2l-5 11h-2l-2 4-8 9-4 7-2 2h-6l-1-6 3-5 3-3 1-6-4-7 2-6 3-5 1-6-3-1v2l-4 1-2-5 1-8-1-5 15-9 5-4 18-11 3-1-1-3-12-3 2-4z" fill="#ECECED"/>
<path transform="translate(1104,750)" d="m0 0h5v12l-3 22-6 34h-2l-1 3h-4l-1 2-5 1-4-4-1-6v-9l-3-5-6-12-4-12-5-10-3-3v-2l16-5 24-5z" fill="#510011"/>
<path transform="translate(931,78)" d="m0 0 5 5 5 8v9l-4 16-12 36-14 38-9 22-2 5h-2v2l-10 3h-7l1-4h2l1-6h2l1-4 7-21 4-8 7-21 3-6 7-20 3-8 3-12 6-18z" fill="#D1CECF"/>
<path transform="translate(948,185)" d="m0 0 2 2-2 4-2 1 1 5v3l3 1-3 10-4 9-5 1-3 1-1 9-2 5-3 12-2 6v2l-2 1-1 4 1 3-2 2v3l-3 6h-2v6l-3 5v3l-3 3-1 7-2 4-3 3v4h-2l-3 15-3 1 2 3v5l-3 3-2 8-4 5-2 4h-4l1-9 2-5 3-11 2-6h2l1-7 7-19 6-18 8-20 11-33 4-10v-4h-4v3h-5l1 5h-3l-1 3-5 3-12 18h-3v-6l6-6 2-6-8 6h-2l-9 16-4 9-3 3-7 15-3 7-3 2-4 8-5 6h-2l1-5h2l1-4 4-8 3-9 2-2 2-6 5-8 4-10 10-10 2-4-3 1h-9l4-2 9-2 2-2 8-3 11-6 4-3h2v-2l11-9 8-9z" fill="#BE2F45"/>
<path transform="translate(621,352)" d="m0 0 2 3 3 12 1 9v32l-5 13-5 14-4 3-1 19-3 15-6 21-1 5-8 13-7 10-6 11-10 12-5 3-2 3 1-9 7-31 3-3-1 7-4 17h6l2-2 1-4v-22l1-3-1-8 5 5 3 5h2l4-18 4-16 3-8 4-10 1-9 1-23 1-9h-2l1-9 2-3h2v6l-1 2 3-1 4 15 3 3 2-9 1-14v-20z" fill="#AE7F87"/>
<path transform="translate(1092,552)" d="m0 0h1l-1 9v42l-15 11-5 3-4 9-8 1-14 5-1-2 1-12 3-8 2-5 11-13 8-10 14-19 6-8z" fill="#520011"/>
<path transform="translate(969,889)" d="m0 0h2l1 7v11l-3-1-1 2h-2l-1-2-3 3-1-3-1 3h-2l-1-2-1 4-21 3-19 3-21 4-3-7-2-7v-6l24-6 19-3h14 4l2 1v-2h7l5-1z" fill="#CCC9CA"/>
<path transform="translate(264,895)" d="m0 0 11 5 15 3 16 5 16 7 9 5 2 2-1 6-8 11-2 1-4-5-7-4-5-2-6-2-12-1-16-4-10-4-3-2 2-11z" fill="#530012"/>
<path transform="translate(941,344)" d="m0 0 14 2 22 5 1 1v12l7 2 16 2 3-19h1v12l-2 10h-2v2l-21-3-8-2 1-14-10-1-18-4-2-1-3 24-1 2 10 1 37 7 10 14 4 6v8l-5 33v6l-2 7-2 9-8 6-13 8-14-2-33-6-1 4-27-4 1-2-1-6 1 3 8 1 11 2h4l2-6 8 4 37 6 7-1 10-7 4-3 5-28 3-23-1-9-4-6-4-5v-2h-2v-2l-5-1h-11v-2l-28-5-5-2 2-17 3-15z" fill="#B4A5A8"/>
<path transform="translate(685,455)" d="m0 0 2 4 2 14 3 23v16l-3 18-6 18-6 15-3 9-3 13-1 15-4 13-2 3h-2l-1-4v-29l3-18 18-56v-49z" fill="#4F0010"/>
<path transform="translate(722,740)" d="m0 0 5 5 1 6 1 2 3 1 1 10 6 7 5 7 1 3v-36h2l1 13 3 5 4 11 2 3 4 1-1 5-9 17-3 3-5-1-2 2h-4v3l-4 1-4-1v-2l-6-2v-9l1-18h-2l-4-8 2-1 3 1v-3h-2l-1-9v-2h-2l1-6z" fill="#500011"/>
<path transform="translate(797,644)" d="m0 0h1v18l-1 43-1 8-10-3-6-4-6-5-5-3-5-5-3-11v-5l7-1 4-6 3-7 9-4 9-1 3-3z" fill="#4F0010"/>
<path transform="translate(1017,612)" d="m0 0 4 2 3 20 5 29 1 11-2-2 1-2h-2v2l-7-1-3-2 4-5-4-2-5 1-4-1v-2l-3-1v-12l5-3h9l2-2-5-6-10-2-4 2-6 1v2h-3v2l-4 2-4 7-1 4h-2l-2 4-2 2h-8l-6-5 2-5h2l1-4h2l3-9h2l1-3h2l1-2 6-2v-2h2v-2l12-2 8 1 5 1 6-2v-6l-1-4-2-1z" fill="#BE3247"/>
<path transform="translate(1100,208)" d="m0 0 2 1-1 4h-2l1 4h-2l3 3 3-3h2l1-2 5 6-3 12-2 9h-2l-1 6-1 5 4-1v2h2l-1-4 4-8 1-7 2-9 6 5 2 2 5-3 3 1 1-2 3-2 4 1 1 5-7 3h-5l-1 4-3 3-1 4-4 4-9 11-4 6-3 5h-2l-1 4-4 4-4 6-4-2 6-7-1-3-1 3h-2l-1 5h-2v-4l4-2v-3l-4 1v-12l1-10 3-1 2 1v2h2l-1-7v-4l-1-8 2-2 2-9v-12z" fill="#BC2E45"/>
<path transform="translate(792,117)" d="m0 0 11 1 10 2 7 7 9 2-1 2-4 2-3 11-9 6-8 7-4 4-2 7-1-2-8 1-2-6v-22l1-20z" fill="#3B0009"/>
<path transform="translate(773,71)" d="m0 0h1l1 5 1 20 2 28v12l-1 5v24l3 8v3l-11-1-4-4v-45l-2-31v-9l6-10z" fill="#EAE9EA"/>
<path transform="translate(969,868)" d="m0 0h6v11l-16 3-17 2-20 2-20 4-12 3h-3l-3-8v-4l21-6 19-3 30-1z" fill="#CBC8C8"/>
<path transform="translate(809,469)" d="m0 0 2 1-1 8 1 3-1 5-1 3 5 1 2-1-1 3 3 1 1-3 5-1v2l5 2v2l-7-1-6 3-1 9 2 4 2 1h7l5-6 1 3-3 6-3 2-9-1-2-1 1 5-1 3v14l2 9-1 5 4 9v9h-6l-4 1-2-8 1-2-9 1 2-1v-15l-1-2h2v-12l3-35 2-19h-4l-1-4 6-1z" fill="#530012"/>
<path transform="translate(261,876)" d="m0 0 14 3 9 2 8 4 10 4 12 3 13 4 10 5 5 5-5 10-9-4v-2l-6-2-13-6-16-5-24-7-6-3-2-7z" fill="#7F0723"/>
<path transform="translate(943,812)" d="m0 0 9 1 11 6 4 1v2l11 1 7 6 6 8 3-3 3 3 1-2 2 7-4-3-1 5 6-1v14l-2-4-2-7 1 13-2-1-2-9v11l-2-2-1-5-1 7-2-4-1 5-2-4-2 4-2-4-2 2v-3h-2v6h-1l-1-6-2 4v-6h2v-3h-2v-2l-2-1 6-7 6-2v-3l-11 1-9-3-5-4-3-5v-2l-5-2-3-2v-2l-5-2z" fill="#4F0010"/>
<path transform="translate(931,312)" d="m0 0 13 1 35 7v-2l31 5 1 1-1 16-4 29-1 4h-4v-2h2l1-10 1-21 1-12-10-2-13-2-1 4-5-2-1-1-35-7-8-1-14 10-3 1v3l2 1h-2v5l-3 9-2 18-2 11v9l1 7h-3l-4-6 2-18 6-40 9-7 4-3h2v-2z" fill="#D4CFD1"/>
<path transform="translate(797,768)" d="m0 0h1l2 33-9 3h-3l-1 3-6 1-2-6h-2l-1 4 1 1 1 7 2 2h-9l-3-2 2-1-5-5v-2l-6 3-5-1-7 4-2-1 5-5 8-7h1v5l5-3 2-4h2v-2l8-3 4-2v-13l1-2h11l5 2z" fill="#510011"/>
<path transform="translate(617,341)" d="m0 0 2 2 2 6 1 8 1 25v21l-2 14-2 5-3-1-3-9-2-7h-2l1-8h-2l-2 6-2 1 1-6-3 1-1-7v-3h2v-6l3-7 5-1 3-6 1-10-1-11z" fill="#B6B5B6"/>
<path transform="translate(1061,254)" d="m0 0h2l1 3 1 11 3 70v29l-1 16-2 5-3-4-1-7-2-31v-27l-1-11 1-14v-20l1-17z" fill="#500011"/>
<path transform="translate(943,113)" d="m0 0 3 2h-3v2l6 1v-3h2l-2 9-11 32-3 8-8 22h-2l-2 10-4 11-3 1-3 4h-4l1-7 4-12 4-10 15-40 9-29z" fill="#CDC7C8"/>
<path transform="translate(782,63)" d="m0 0h9l13 4-1 3-6-3-10-1-3 1v12l-1 13 1 4-1 4 2 5v4l1 2 22 5-1 2-15-2h-6v8l1 4-2 20v7l-9 2v-16l1-5v-16l-2-24v-27z" fill="#B82D44"/>
<path transform="translate(279,924)" d="m0 0h7l2 1 13 1 10 4 7 4 5 6-2 5-4 4-4 2h-12l-9-4-10-6 2-1v-5h1v5h2l1-9h-2v3h-2l-1-3-2-1 1-5-3 1z" fill="#B7B3B5"/>
<path transform="translate(531,375)" d="m0 0 9 1 7 5 8 16 5 19v7l-2 3-5-2-2-4h-2l-7-13-13-26 1-4z" fill="#EDEDEE"/>
<path transform="translate(1070,866)" d="m0 0h1l1 17 1 5-7 6-11 4-13 2h-8l3-2v-19l15-2 13-4 4-3z" fill="#B9B3B5"/>
<path transform="translate(941,91)" d="m0 0 5 5v9l-8 26-8 23-9 24-5 14-4 10-5 13-5 3-4-1h2l1-5 11-27 14-39 12-36z" fill="#850926"/>
<path transform="translate(920,513)" d="m0 0 13 1h7l6 3 3 5-8 6-9 5-1 4-4 1-2 2-8-1-5-1v-2h-3v-2h-2l-1-3 1-4 8-1 2-5h2v-7z" fill="#BE2F45"/>
<path transform="translate(799,609)" d="m0 0h1v14l-1 16-1-4h-5l-4 5-8 5h-2l-2 11-3 6h-5l-1-4 1-2-1-16 6-8 9-8 15-4v-6l-1-2h2z" fill="#500011"/>
<path transform="translate(263,887)" d="m0 0 6 2 24 7 16 5 19 9v2l5 1 5 2-2 4-2 6-4-5-24-11-24-7-10-2-7-4-2 2z" fill="#AF858D"/>
<path transform="translate(264,895)" d="m0 0 11 5 15 3-3 1-1 14 2-2 1 9h9v1h-10l-16-4-10-4-3-2 2-11z" fill="#810723"/>
<path transform="translate(1177,305)" d="m0 0 3 1 1 6h-2v3h-2v5l1 1 10 2 3 1 2 5 5 1 2 2 1 9-3 2-6-1-7-5v-2h-2l-4-4-11-2-6-2-2-1 1-5 3-4 3-5 6-5z" fill="#EDEDEE"/>
<path transform="translate(465,431)" d="m0 0 3 1 4 11 5 17-1 5h-10l-4-2-1-6-3 1h-12v-13l3-8 3-4h2l5 18h2l4-12-1-7z" fill="#D2D2D2"/>
<path transform="translate(993,427)" d="m0 0h1v7h2l-1 15-2 7-2 9-8 6-13 8-14-2-33-6-1 4-27-4 1-2-1-6 1 3 8 1 11 2h4l2-6 8 4 37 6 7-1 10-7 4-3 5-28z" fill="#B5A8AB"/>
<path transform="translate(629,546)" d="m0 0h2l-1 7-5 26-4 13-2 3-3 12-4 5-9 1 1-6 8-23 12-29z" fill="#D1CECF"/>
<path transform="translate(931,78)" d="m0 0 5 5 5 8v9l-3 13-4 2 1 3h-3v2l2 1-6 1 5 2-4 1h-2l5 2v1l-13-1v-3l3-12 6-18z" fill="#E7E6E7"/>
<path transform="translate(758,88)" d="m0 0h1l2 39v24l-1 17-2-1v-2h-2l-3-5v-30l-1-19v-14l3-7z" fill="#E9E9EA"/>
<path transform="translate(685,455)" d="m0 0 2 4 2 14 3 23v16l-4 11-2 6-2 5-3-1 1-17v-56z" fill="#3B0009"/>
<path transform="translate(1202,545)" d="m0 0h2l5 9 3 2h24l-3 2-16 2-10 1 1 4 9 6 8 6 4 4-6-2-13-5-3-1v-2l-9-2-8-3h-8l-3-2 5-4 12-5 4-9z" fill="#B5ADAF"/>
<path transform="translate(985,133)" d="m0 0 7 2 14 8 20 10-2 1 1 3-6 3-3 3-1-6 1-5h-4v2h-3l-1-6h-3l-1 5 2 1 6 7 4 3-1 4 1 5-2 4-6-2-5-8v-13l-5-2-6-12-7-6z" fill="#BE2F45"/>
<path transform="translate(938,369)" d="m0 0h1v5l10 1 37 7 10 14 4 6v8l-4 24h-2v-13l1-16-4-8-5-6v-2h-2v-2l-5-1h-11v-2l-28-5v-2l-3-1z" fill="#C8BCBE"/>
<path transform="translate(1047,164)" d="m0 0 6 2 3 2v2h-2l-3 11-4 10-8 5-5-1-3-4v-8l2-5 6-1 4-9z" fill="#BE2F45"/>
<path transform="translate(1060,694)" d="m0 0 2 3 5 20 1 12v21l4 1h-2l-1 6 2 2-13 4-16 6h-2l2-8 1 2 7-6 4-6 6-5 5 1v-16l-2-18-3-15z" fill="#B6B2B4"/>
<path transform="translate(929,164)" d="m0 0h4v6l-6 16h-2l-2 10-4 11-3 1-3 4h-4l1-7 4-12 4-10 6-16 5-1z" fill="#DCD8D9"/>
<path transform="translate(976,886)" d="m0 0h9l1 18 1 2-17 3-13 2-1-4 2-1v3h2v-11h1l2 10 1-11h1l1 11h2v-11h1l1 9 2 1-1-18-2 1-1 5h-1v-5l-4 3v-3l-4 3v-2h-6v2l-6 1v-2h-5v-1l30-4z" fill="#B5AEB0"/>
<path transform="translate(679,381)" d="m0 0 14 2 5 9 1 8v4l1 7 2 7-3 1-4-4 1-3h-2l-4-7v-3l-3-1-5-10-4-5z" fill="#BE2F45"/>
<path transform="translate(561,212)" d="m0 0 1 2h2l14 28 13 28 8 19 5 16-1 3-3-5v-4h-2v-6l-3-1-6-12-9-14 1-3 2 1-2-7-4-9-7-14-6-10-2-6z" fill="#CCC7C8"/>
<path transform="translate(1236,387)" d="m0 0 5 2 1 3-11 20-5 6-10 5-2-2 8-13 3-10 4-5 1-3z" fill="#B7B6B7"/>
<path transform="translate(762,85)" d="m0 0 2 1 1 28 1 12v20l-1 19h-1v-6l-4 1v-33l-1-17v-20z" fill="#AE243C"/>
<path transform="translate(910,387)" d="m0 0 4 5 6 8 4 2 39 7 6 2v8l-1 6-1-4h-3l1-7-10-1-35-6-3-1-8-12z" fill="#B5AAAD"/>
<path transform="translate(782,63)" d="m0 0h9l13 4-1 3-6-3-10-1-3 1v12l-1 13 1 4-1 4h-6v5h-1l-1-9v-27z" fill="#BD364B"/>
<path transform="translate(698,823)" d="m0 0 6 1 10 6v14l1-3 2 1-1 11-2 3-1 8-2 4v-12l-2 7h-2v-12l-2 15-2-1 2-23 2-6 3-1 1-4-8-1-3 4-6-2v-2l6 1-3-4z" fill="#3E000A"/>
<path transform="translate(532,543)" d="m0 0 3 3 2 7 3 29v14l-3 5-4 10-2-1 1-6z" fill="#AF8088"/>
<path transform="translate(898,417)" d="m0 0 22 3 6 2-4 2-8-1h-12l-1 1-3 23-2 15 1 8h-6l-1-1 1-12 6-38z" fill="#C8BFC1"/>
<path transform="translate(699,271)" d="m0 0 2 3v10l-1 2 1 7-2 3-3 5v3l-1 7h-2l-2 8-5 2v-7l8-31 4-11z" fill="#BE2F45"/>
<path transform="translate(911,327)" d="m0 0 2 3v2h2l1-3v2l2 1h-2v5l-3 9-2 18-2 11v9l1 7h-3l-4-6 2-18z" fill="#C7BDBF"/>
<path transform="translate(969,868)" d="m0 0h6v11l-16 3-6 1-2-1v-9l-5 1-2-2 16-2z" fill="#B5A8AB"/>
<path transform="translate(1074,851)" d="m0 0 2 1-3 5-1 6-4 1-10 4-9 2h-4v-5l3-1 1-5-2-1 16-3 10-3z" fill="#B5ABAD"/>
<path transform="translate(909,67)" d="m0 0h5v3l-6-1-1 2-7 1-2-1-1 2-8 1-21 3-2-1h-15l-25-1v-2l-3 1-13-2-1-2h-4v-2h6l1 1 23 3h32l20-1 19-3z" fill="#BB4456"/>
<path transform="translate(676,357)" d="m0 0 1 2-5 27-6 8h-1l-2-14 1-10 9-11z" fill="#500011"/>
<path transform="translate(629,546)" d="m0 0h2l-1 7-5 26-3 9-2-2v-2l-7-1 6-16 7-16z" fill="#CEC8CA"/>
<path transform="translate(1099,502)" d="m0 0 3 1v3h2l2 4 5-1 4 5 2 1-2 4-5 7-6 1-4-8-2-13z" fill="#530012"/>
<path transform="translate(0)" d="m0 0h18l-1 5h-2v2h-2l-2 4-8 11-3 1z" fill="#B7B6B7"/>
<path transform="translate(847,107)" d="m0 0h1l1 13h2v-8h1l1 7 2 1-1-7 2-1 1 7 2 1-1-7 2 1 1 5 2 1-1-5 2-1v6h2v-7l2 2v5h2v-7l2 2v4h2l1-3 4 4 2 1-1 2-7 1-4-1v-2h-2l-1 2v-2l-8 1-12-1v-7l-1-1v8h-9l-3-2 4-1 5-9 3-1 2 1z" fill="#500011"/>
<path transform="translate(770,747)" d="m0 0 5 1 1 5-8 15-2 1-3 6-4-2-1-6 5-10 3-1 1-7z" fill="#500011"/>
<path transform="translate(610,320)" d="m0 0 3 1 12 24 4 9v13l-2 4v-4h-2l-4-15-6-16-5-12z" fill="#540012"/>
<path transform="translate(685,455)" d="m0 0 2 4 2 14 3 23v16l-2-2-1-18-2-7h-3v22h-1l-1-47z" fill="#500011"/>
<path transform="translate(796,318)" d="m0 0 3 1v3l4 2-1 2h-4l1 22-1 10h-3l-1 3-5 3 3-21 2-10h2l1-2-2-1v-3h2v-2h-2z" fill="#500011"/>
<path transform="translate(934,189)" d="m0 0 1 3 3-1v3l-4 1-2 4-8 8-1 2h-4v4h-2v-2l-5 5v2l-9 3-1 2-6 1-1-2h-4l-1 3-1-2-4 2v-3l13-4 8-3 2-5 1 2 5-2 2-3h3v-2l8-7z" fill="#BD374C"/>
<path transform="translate(895,128)" d="m0 0 2 2 3-2 1 2 1 6v-7l2-1 2 11-6 16-4 10h-3l-2-3-1-7 2-3v2h2v-2l2 1-1 2 2-1 1-19-4-2v-3z" fill="#510011"/>
<path transform="translate(969,889)" d="m0 0h2l1 7v11l-3-1-1 2h-2l-1-2-3 3-1-3-1 3h-2l-1-3-1-13 5-3h4z" fill="#D1D1D1"/>
<path transform="translate(1252,406)" d="m0 0 2 2 7 19 5 11-1 2-2-1-1 8-4 7h-3v-7l2-10v-9l-3-3z" fill="#B7B6B7"/>
<path transform="translate(263,887)" d="m0 0 6 2 19 6v7h-8l-10-3-5-3-2 2z" fill="#B5AAAD"/>
<path transform="translate(377,665)" d="m0 0h6l8 8 2 3v4l-10-1-7-3-4-4 1-4z" fill="#D2D2D2"/>
<path transform="translate(794,720)" d="m0 0h2v26l-5-5-9-18 4 1v-3z" fill="#500011"/>
<path transform="translate(1190,348)" d="m0 0h2v7l-3 12-3 8-2 5-5 7-2-3 1-5 1-3h2v-7l6-18z" fill="#EDEDEE"/>
<path transform="translate(924,107)" d="m0 0 1 4 9 1 3 2-3 1 1 3h-3v2l2 1-6 1 5 2-4 1h-2l5 2v1l-13-1v-3l3-12z" fill="#E4E2E3"/>
<path transform="translate(931,312)" d="m0 0 13 1 7 2v2l2 2-12-1-8-1-14 10-3 2-1 3h-2l-1-5 12-10h2v-2z" fill="#D8D4D5"/>
<path transform="translate(525,291)" d="m0 0 4 2 3 19v9l1 3v7l-3-1-3-11-3-17v-8z" fill="#D2D2D2"/>
<path transform="translate(1070,866)" d="m0 0h1l1 17 1 5-7 6-4 1v-2h2l-1-4v-8l-2-1h2v-4l-3-1 8-4z" fill="#AF828A"/>
<path transform="translate(710,789)" d="m0 0 4 2 2 3 1 17 2 1-3 3-4 1-8-3 2-5h6l1-1v-7l-4-1-1 3-4 2 3-11 3-1z" fill="#500011"/>
<path transform="translate(993,427)" d="m0 0h1v7h2l-1 15-2 7-2 9-8 6-6 4h-2l1-5 11-8 5-28z" fill="#B8AAAD"/>
<path transform="translate(328,897)" d="m0 0 6 2 8 6-4 10h-3l-4-2v-3l-2-1v-1l-2 1v-3l-2 1-1-2-2 1 2-5z" fill="#72051E"/>
<path transform="translate(1036,879)" d="m0 0 2 2v17l-5 2-2-2h-3l1-18z" fill="#C2C2C2"/>
<path transform="translate(938,369)" d="m0 0h1v5l10 1 26 5 1 2-1 2-14-1-21-4v-2l-3-1z" fill="#CAC1C3"/>
<path transform="translate(1e3 324)" d="m0 0h6l-1 16-4 29-1 4h-4v-2h2l1-10 1-21 1-12-3-1z" fill="#C4B9BB"/>
<path transform="translate(794,392)" d="m0 0 5 1 1 4-1 13h-2l-4-4-2-1v-2l-8 4 1-9h5v-2h2v-3z" fill="#530012"/>
<path transform="translate(784,412)" d="m0 0 5 1 1 10 1 2h6l1 4-7 2-5-1v-2l-6-1 1-12z" fill="#500011"/>
<path transform="translate(916,189)" d="m0 0 1 2 7 1-5 15-3 1-3 4h-4l1-7 4-12z" fill="#D4CECF"/>
<path transform="translate(1037,858)" d="m0 0h9l3 1-1 8-2-2-1 5-6 1h-5l-1-1v-11z" fill="#C1BDBE"/>
<path transform="translate(1008,881)" d="m0 0h8v19h-2l-1-4-2 5h-4v-19z" fill="#C7C7C7"/>
<path transform="translate(1284,533)" d="m0 0 1 3-4 6-12 7-13 5-14 7-4-2 3-3 15-5 3-4 12-3 6-2v-2l3-3z" fill="#EDEDEE"/>
<path transform="translate(777,100)" d="m0 0 7 1 1 4v4l1 2 22 5-1 2-15-2h-6v2l-8 1-1-5z" fill="#BC2E45"/>
<path transform="translate(759,453)" d="m0 0 5 1 1 1v9l-4 2v2h-5l-2-4h-2l1-7 3-3z" fill="#AA737E"/>
<path transform="translate(782,159)" d="m0 0 4 1 2 8-1 2h2l-2 4 2 2-3 1-6-2-4-10v-4z" fill="#B42D44"/>
<path transform="translate(1018,857)" d="m0 0 18 1-3 1 1 12h-14l3-2v-9l-2 8h-1l-1-9-3-1z" fill="#B4A5A9"/>
<path transform="translate(257,864)" d="m0 0 7 6 11 5 9 3 1 4-15-3-8-2-2 1-4-13z" fill="#B5AEB0"/>
<path transform="translate(788,192)" d="m0 0h7l2 2-1 7-4 5-4 1-3-2-1-9z" fill="#A15A69"/>
<path transform="translate(966,888)" d="m0 0h6l2 18 2 2-17 3h-3l1-5 1 3h2v-11h1l2 10 1-11h1l1 11h2v-11h1l1 9 2 1-1-18-2 1-1 5h-1v-5l-4 3v-3l-4 3v-2h-6v2l-6 1v-2h-5v-1z" fill="#B5ADAF"/>
<path transform="translate(435,415)" d="m0 0 4 1 4 16-5 4h-2v2h-3v-8l1-1v-6l-1-2z" fill="#D2D2D2"/>
<path transform="translate(947,96)" d="m0 0 4 2 2 3v8l-2 6h-2v3l-6-1v-4z" fill="#E9E8E9"/>
<path transform="translate(1221,372)" d="m0 0 4 1 1 1v7l-6 10-4 2-1-4 3-14z" fill="#B7B6B7"/>
<path transform="translate(1e3 349)" d="m0 0h1v12l-2 10h-2v2l-21-3-6-1 4-1-1-4 8 2 16 2z" fill="#B4A5A8"/>
<path transform="translate(1200,548)" d="m0 0 4 1 3 7 2 3-13 1-13 4-4 1 5-5 12-5z" fill="#AF8088"/>
<path transform="translate(1014,858)" d="m0 0 5 1 2 4 2-4 1 1v9l-4 2-10 1v-2h2l-1-9-1-2z" fill="#C0BBBC"/>
<path transform="translate(765,126)" d="m0 0h1v20l-1 19h-1v-6l-4 1 1-25 3-1z" fill="#AE5060"/>
<path transform="translate(491,665)" d="m0 0 6 1 3 1-1 6-4 6-5 2-2-7 1-7z" fill="#AF8088"/>
<path transform="translate(645,863)" d="m0 0 4 1 2 1 1 6 2 1v2l5 2 2 1-1 2-16-7-12-4-5-1v-1h13z" fill="#B6ACAE"/>
<path transform="translate(943,113)" d="m0 0 3 2h-3v2l6 1v-3h2l-2 9-3 8-7-1v-4l2-9z" fill="#D0C9CA"/>
<path transform="translate(894,67)" d="m0 0h7l-1 2-13 3-20 1h-21l-2-2 38-2z" fill="#E3E2E3"/>
<path transform="translate(1025,879)" d="m0 0h11v1h-7v18l3-1 1 3-7 1h-4l1-4v-17z" fill="#BDB5B7"/>
<path transform="translate(825,245)" d="m0 0 6 3 1-1h10l-4 2v2l5 1 1 5-3 1-1-2-4-2h-5l-1 2-5-6-1-4z" fill="#4C000F"/>
<path transform="translate(898,417)" d="m0 0 22 3 6 2-4 2-8-1h-12l-3 7-2 1v-12z" fill="#CFCCCD"/>
<path transform="translate(698,823)" d="m0 0 6 1 10 6-1 15-2 4v-18l-8-1-3 4-6-2v-2l6 1-3-4z" fill="#500011"/>
<path transform="translate(1269,482)" d="m0 0 4 1 1 5-1 4-8 1-7-3 2-4h2v-2z" fill="#EDEDEE"/>
<path transform="translate(288,895)" d="m0 0 10 3 3 1 1 2h2l-1 5-5 1-12-4 2-1z" fill="#B08B92"/>
<path transform="translate(1317,558)" d="m0 0h2v28l-2 1-2-8-4-3 2-6 3-7z" fill="#AF8088"/>
<path transform="translate(1108,192)" d="m0 0 4 4v5l1 2-2 2-2-1-2 5-3 1-4-5 2-5h2v-3l3-2z" fill="#BD2F45"/>
<path transform="translate(933,316)" d="m0 0 15 2 9 2-4 2-1 2v-3h-9l-2-1-1 2v-2h-6l-3 3-4 1-1 2h-3l-1 3-5 1-1-2z" fill="#BB3D51"/>
<path transform="translate(786,140)" d="m0 0h1l1 21 4 14 2 2-4-1-2-4 1-2h-2l-1-8-1-2-9 1 1-5 8-1v-2l-2-1 1-5 1-6z" fill="#8B0C28"/>
<path transform="translate(307,790)" d="m0 0 12 1 5 2-1 4-9 2-9-4 1-4z" fill="#EDEDEE"/>
<path transform="translate(794,474)" d="m0 0 5 1 2 2v15h-2v-2h-3l-2-5-3-9z" fill="#500011"/>
<path transform="translate(791,446)" d="m0 0 3 1 3 6 3 2 1 5-3 1 3 3v3l-2 1-1 2-3-3-1-6-3-5v-5l-1-4z" fill="#500011"/>
<path transform="translate(1007,880)" d="m0 0 1 2-1 19 2 1-5 1-2-1-1-20z" fill="#BFBABB"/>
<path transform="translate(1,1047)" d="m0 0 3 4v5l3 1 2 3v6h-9v-18z" fill="#B7B6B7"/>
<path transform="translate(902,422)" d="m0 0h12l10 1 7-1-1 11-1 4-4 3v-10l1-4-9-1-15-2z" fill="#C1B3B6"/>
<path transform="translate(831,379)" d="m0 0 7 3 4 3 5-1 3-3-2 6-3 3-6 1-6-4-2-3z" fill="#4E0010"/>
<path transform="translate(911,327)" d="m0 0 2 3v2h2l1-3v2l2 1h-2v5l-3 9-3 8h-2v-8z" fill="#DDDADB"/>
<path transform="translate(306,928)" d="m0 0 5 2 7 4 5 6-8 4-2-4v-3h-2l-1-2h-2l-1-3-2 2v-5z" fill="#AF8088"/>
<path transform="translate(847,107)" d="m0 0h1l2 14h-4v-7l-1-1v8h-9l-3-2 4-1 5-9 3-1 2 1z" fill="#520011"/>
<path transform="translate(1056,614)" d="m0 0 4 2 2 4v5h-2v2h-6l-3-2 1-7z" fill="#3C0009"/>
<path transform="translate(1108,368)" d="m0 0 3 2 1 8 1 4h2v11l-2-4-6-4v-15z" fill="#B7B6B7"/>
<path transform="translate(828,202)" d="m0 0h3v3h2l-1 2-5 2-1 2h-2v2h5l-3 2h-3v2l-4 1-2-5 2-3h3l-1-4z" fill="#500011"/>
<path transform="translate(618,339)" d="m0 0 3 3 7 14v15l-1-4h-2l-4-15-3-9z" fill="#49010E"/>
<path transform="translate(776,322)" d="m0 0h6l2 5v6l-2 2h-3v-2h2v-7l-7 1v3l5-1-1 4-3 2 1 2-4-1-2-8 4-5z" fill="#B59097"/>
<path transform="translate(951,315)" d="m0 0 9 1 14 3-2 3 1 2-8-1-15-3z" fill="#D4CDCF"/>
<path transform="translate(1202,545)" d="m0 0h2l5 9 3 2h24l-3 2-16 2h-9l-2-4-3-7-3-1v-2z" fill="#B6B3B5"/>
<path transform="translate(1072,888)" d="m0 0h1v8l-1 3h-2l-1 2-5 1-2 1v-2h-2v-5l10-6z" fill="#580114"/>
<path transform="translate(523,605)" d="m0 0h3l5 8-2 5-5 8h-1z" fill="#AF8088"/>
<path transform="translate(929,164)" d="m0 0h4v6l-3 8-8-2 2-9 5-1z" fill="#D7D1D3"/>
<path transform="translate(909,67)" d="m0 0h5v3l-6-1-1 2-7 1-2-1-1 2-8 1-5 1-17-2v-1l20-1 19-3z" fill="#B65C6A"/>
<path transform="translate(885,147)" d="m0 0h2l-2 13-3 5h-14l3-3 9-1v-5h3l1-8z" fill="#500011"/>
<path transform="translate(802,65)" d="m0 0h9l10 3 21 3v1h-14l-16-2-1-1-9-2z" fill="#E2E0E1"/>
<path transform="translate(1241,394)" d="m0 0h2l-2 5-8 15-7 6-8 4-2-1 8-5h2l2-4 6-9 6-10z" fill="#D2D2D2"/>
<path transform="translate(934,189)" d="m0 0 1 3 3-1v3l-4 1-2 4-8 8-1 2-5-1 1-3 8-7z" fill="#BE2F45"/>
<path transform="translate(671,432)" d="m0 0h1l1 12v21l-3 1-1-3v-10z" fill="#4A000E"/>
<path transform="translate(1104,335)" d="m0 0h3l2 12v16h-3v-8l-1-4z" fill="#B7B6B7"/>
<path transform="translate(932,315)" d="m0 0 2 1-15 11-3 2-1 3h-2l-1-5 12-10z" fill="#DEDEDE"/>
<path transform="translate(726,142)" d="m0 0 4 1 3 12-2 8-3-3-2-8z" fill="#840825"/>
<path transform="translate(756,174)" d="m0 0h3v2l5 1 9 3 5 1 2-1 9 1 2 4-20-2-11-4v-2l-4-1z" fill="#840825"/>
<path transform="translate(664,620)" d="m0 0 2 3v24l-3 3-1-6v-10l1-13z" fill="#500011"/>
<path transform="translate(734,882)" d="m0 0h13l12 1v1l-14 4-1-2-7 1h-3l-1-4z" fill="#ECECED"/>
<path transform="translate(722,739)" d="m0 0 5 1 2 1 2-2 2 3v8l-1 4-4-1-2-7-3-5z" fill="#840825"/>
<path transform="translate(1069,862)" d="m0 0h2l-1 8-5 4h-5l-1-5 3-1v-2z" fill="#560113"/>
<path transform="translate(1107,462)" d="m0 0 4 2 8 26-1 2-7-14-3-9z" fill="#AD7B84"/>
<path transform="translate(903,149)" d="m0 0 7 2-4 10-3 1-4-1 1-5v-2l1-4z" fill="#9B1A34"/>
<path transform="translate(993,427)" d="m0 0h1v7h2l-1 15-2 7h-4l1-9z" fill="#B8A7AA"/>
<path transform="translate(734,789)" d="m0 0 7 2 5-1 2 1 1 6-3 2h-3l-1-2-4-1-4-4z" fill="#830724"/>
<path transform="translate(804,217)" d="m0 0 8 1 1 5-7 6-1 2h-2z" fill="#500011"/>
<path transform="translate(915,117)" d="m0 0 5 1v6l-10-3-9 2-3 1-7-2v-1l20-3z" fill="#BF3046"/>
<path transform="translate(924,872)" d="m0 0h19v1h-17l-1 3v-2h-3l-1 3v-3h-3l-1 4-3-3v6h-1v-5h-2l-1 6h-1l-1-5-2-1v7h-1l-1-5-3-2 14-3z" fill="#B39EA2"/>
<path transform="translate(762,85)" d="m0 0 2 1v20l-3-3-1 7h-1v-20z" fill="#B55262"/>
<path transform="translate(913,200)" d="m0 0 7 1-1 6-3 1-3 4h-4v-5l3-1z" fill="#D5D0D1"/>
<path transform="translate(969,868)" d="m0 0h6v11l-6 1-1-1v-8z" fill="#C5BFC0"/>
<path transform="translate(396,524)" d="m0 0 3 3 1 6-3 4-4-1-2-2 1-6z" fill="#EDEDEE"/>
<path transform="translate(1045,858)" d="m0 0 4 1-1 8-2-2-1 5-5-1v-7l2-3z" fill="#C5C3C4"/>
<path transform="translate(696,776)" d="m0 0h1l1 9h2v5l-3 3h-3l-1-7 1-7z" fill="#500011"/>
<path transform="translate(721,740)" d="m0 0 1 4-3 6-2 6-5-1 1-5 5-9z" fill="#840825"/>
<path transform="translate(831,505)" d="m0 0 1 3-3 6-3 2-9-1-4-4v-5h2l2 4 2 1h7z" fill="#3D000A"/>
<path transform="translate(328,919)" d="m0 0 4 2 1 5-6 9-5 5-4-6 8-1 2-5 2-7h-2z" fill="#840825"/>
<path transform="translate(763,723)" d="m0 0 5 3 3 3-1 5-6-1-3-3v-5z" fill="#500011"/>
<path transform="translate(957,378)" d="m0 0 13 1 6 2-1 3-14-1-4-4z" fill="#CFCACB"/>
<path transform="translate(829,175)" d="m0 0 4 2v9l-5 3-4-1 2-4 1-5z" fill="#3B0009"/>
<path transform="translate(317,899)" d="m0 0 1 3 3-2v3l2-1v3l2-1 1 2 2-1v3l3-3-1 4 1 3h-3v-2l-6-2-10-5 1-3h3z" fill="#820724"/>
<path transform="translate(1e3 324)" d="m0 0h6l-1 16-1 3h-2l-1-15-3-1z" fill="#CBC3C5"/>
<path transform="translate(951,168)" d="m0 0 4 1-4 3-3 5h-2l1 3-3 2-1 2h-4l2-5 5-9z" fill="#BF3046"/>
<path transform="translate(916,68)" d="m0 0 5 1 2 1v2h3l5 7v6l-1-2-7-2 4-1-4-1-3-8z" fill="#BC3D50"/>
<path transform="translate(999,594)" d="m0 0h7l4 2 4 7-1 2-3-4v-2h-3v2h-5l-2-1v-3h-2z" fill="#BF3046"/>
<path transform="translate(790,192)" d="m0 0h5l2 2-1 7-4 5-4 1-3-2-1-7 4 2-1 4 4-1 3-5-4-4z" fill="#C2B2B5"/>
<path transform="translate(850,103)" d="m0 0h14l9 3 9 6v2l-6-2-8-6-5-1h-12l-9 3-4 1 3-3z" fill="#BF3046"/>
<path transform="translate(941,91)" d="m0 0 5 5v9l-2 3v-2l-4-1z" fill="#A7354A"/>
<path transform="translate(851,73)" d="m0 0h26l5 1v1l-14 2-2-1h-15z" fill="#BF3046"/>
<path transform="translate(940,354)" d="m0 0h1v11l-1 7-2 4 2 2-5-1 2-17 1-2h2z" fill="#C5BEC0"/>
<path transform="translate(733,233)" d="m0 0h7l3 1-1 7v3l-3 1-2-1-2-10z" fill="#840825"/>
<path transform="translate(573,208)" d="m0 0 5 1 1 5-2 4-4-2-5-1 3-6z" fill="#860926"/>
<path transform="translate(741,585)" d="m0 0 3 1-1 8-3 4 1-9-3 7-4-2 1-6 5-2z" fill="#B7999F"/>
<path transform="translate(750,117)" d="m0 0h2l1 3v7l-2 2v-2h-3v-2l-3-1-2-1 1-2 1-3z" fill="#A41D37"/>
<path transform="translate(1014,858)" d="m0 0 5 1 1 2v8l-1 1h-5z" fill="#C7C6C7"/>
<path transform="translate(594,279)" d="m0 0 2 2 8 24-1 3-3-5v-4h-2l-2-9-3-9z" fill="#B5A1A5"/>
<path transform="translate(800,273)" d="m0 0 2 1 1 8v8h-3l-1 3-1-2v-9z" fill="#3B0009"/>
<path transform="translate(694,877)" d="m0 0h9l6 3-1 2-11 1-1-2-5-1z" fill="#EAEAEA"/>
<path transform="translate(318,877)" d="m0 0 7 1-1 4-3 4h-2v-5l-3 5-3 1-1-4 3-2 1-3z" fill="#D2D2D2"/>
<path transform="translate(748,471)" d="m0 0 2 4-3 6-5-1-2-1 1-7 5 1z" fill="#BF3046"/>
<path transform="translate(880,206)" d="m0 0 8 2-1 4h-2l-1 6-1-3-7-1 3-5z" fill="#AD2E44"/>
<path transform="translate(729,486)" d="m0 0h3l1 5-4 3h-4v2h-4l2-6 3-3z" fill="#BF3046"/>
<path transform="translate(283,801)" d="m0 0 4 1 4 5-1 3-5 1-3-2v-7z" fill="#EDEDEE"/>
<path transform="translate(901,174)" d="m0 0 6 1v3h-2l1 2-3 1 2 2-3 1 2 3-7-2 2-7z" fill="#E8E8E9"/>
<path transform="translate(777,325)" d="m0 0 4 1 1 4-1 3h-2l1 3-4 1-2-3 4-2-1-1h-5l2-5z" fill="#9B5261"/>
<path transform="translate(796,318)" d="m0 0 3 1v3l4 2-1 2h-4v7l-1-2-2-1v-3h2v-2h-2zm-2 15 3 3h-3z" fill="#530012"/>
<path transform="translate(1113,255)" d="m0 0v3l-5 7-2-1-8 3v-2l-3-3v-3l5 1 2 1h6z" fill="#860926"/>
<path transform="translate(332,762)" d="m0 0h6l4 3-1 3h-9v-2h-2z" fill="#EDEDEE"/>
<path transform="translate(829,323)" d="m0 0h2l-1 9-6 1-1-5h2v-2z" fill="#3B0009"/>
<path transform="translate(822,371)" d="m0 0 1 4-2 13-2-4-4-1 1-4 4-5h2z" fill="#500011"/>
<path transform="translate(993,322)" d="m0 0h11l6 1v2l-5 1-3 1-9-2z" fill="#DCD9DA"/>
<path transform="translate(966,888)" d="m0 0h6l-3 2-1 5h-1v-5l-4 3v-3l-4 3v-2h-6v2l-6 1v-2h-5v-1z" fill="#B39FA3"/>
<path transform="translate(972,888)" d="m0 0h3l1 10v9l-3-1z" fill="#D1D1D1"/>
<path transform="translate(954,152)" d="m0 0h6l-3 4 1 2-5 1 4 2-6 3-2-1v-3h2l1-4z" fill="#BF3046"/>
<path transform="translate(1021,881)" d="m0 0 3 1v15l-1 2h-2z" fill="#D2D2D2"/>
<path transform="translate(334,686)" d="m0 0 3 1 2 5v6l-4-1-2-4z" fill="#EDEDEE"/>
<path transform="translate(807,636)" d="m0 0 6 6h6l4-2 3-4-1 5-4 4-4 1-7-3-3-3z" fill="#500011"/>
<path transform="translate(1301,595)" d="m0 0h7l2 1-1 4-4 1-7-3v-2z" fill="#EDEDEE"/>
<path transform="translate(810,291)" d="m0 0 1 4-3 5h-2l-1 3-5 4-1-4 2-1-1-5 3 3z" fill="#840825"/>
<path transform="translate(828,202)" d="m0 0h3v3h2l-1 2-5 2-4 1-2-4z" fill="#840825"/>
<path transform="translate(805,68)" d="m0 0h6l1 1 16 2-4 3-14-2-1-2h-4z" fill="#BC3F52"/>
<path transform="translate(761,159)" d="m0 0h3l2 13-5-2-1-3v-7z" fill="#9A1832"/>
<path transform="translate(765,126)" d="m0 0h1v20l-1-4-4 1v-8l3-1z" fill="#B15161"/>
<path transform="translate(981,887)" d="m0 0h2l1 19-2 1-1-2-1-17z" fill="#D0CFCF"/>
<path transform="translate(1e3 882)" d="m0 0 2 2v19l-2-1-1-12v-6z" fill="#D0D0D0"/>
<path transform="translate(992,884)" d="m0 0h2l1 6v12h-3z" fill="#D2D2D2"/>
<path transform="translate(1032,881)" d="m0 0h2l1 2v12l-1 5-2-1z" fill="#D1D1D1"/>
<path transform="translate(1083,755)" d="m0 0 3 1-8 7-3 1-3-4z" fill="#840825"/>
<path transform="translate(743,722)" d="m0 0 3 3v3l4 2v5h-2v-2l-3-1v-2l-3-1v-6z" fill="#500011"/>
<path transform="translate(780,167)" d="m0 0 3 1v1l3 1-2 1 3 2-1 2 3 1-3 1-6-2-2-6z" fill="#850825"/>
<path transform="translate(989,885)" d="m0 0 2 1v19l-2-1-1-8v-10z" fill="#D1D1D1"/>
<path transform="translate(852,222)" d="m0 0h21l2 2-5 3h-2v-2h-15l-2-2z" fill="#BF3046"/>
<path transform="translate(977,888)" d="m0 0h2l1 18-3-1-1-16z" fill="#D2D2D2"/>
<path transform="translate(776,322)" d="m0 0h6l2 5v6l-2 2h-3v-2h2v-7l-4-1z" fill="#C1ACAF"/>
<path transform="translate(647,136)" d="m0 0 2 1-5 4-4 1v3l-7 1-1-3z" fill="#AF8088"/>
<path transform="translate(777,114)" d="m0 0h1v5h8v5l-7 1-2 1z" fill="#B83F52"/>
<path transform="translate(1090,558)" d="m0 0h1v7l-2 11-4 4 3-17z" fill="#3B0009"/>
<path transform="translate(911,327)" d="m0 0 2 3v2h2l1-3v2l2 1h-2v5l-2 6h-1l1-10-2 1v6l-1 2h-2z" fill="#BF9198"/>
<path transform="translate(844,928)" d="m0 0h5l1 5-2 2-5-1-1-3z" fill="#AF8088"/>
<path transform="translate(1018,881)" d="m0 0h2v18h-3v-15z" fill="#D2D2D2"/>
<path transform="translate(614,605)" d="m0 0 1 3-3 4-9 1v-4l10-3z" fill="#E9E8E9"/>
<path transform="translate(762,121)" d="m0 0h2l1 2v11l-4 1 1-8-1-5z" fill="#991A34"/>
<path transform="translate(792,117)" d="m0 0 11 1-4 2h-2v2h-8l-1 2v-5z" fill="#4F0010"/>
<path transform="translate(1010,882)" d="m0 0h2l1 9-1 9h-2z" fill="#D2D2D2"/>
<path transform="translate(1143,234)" d="m0 0 1 2-4 3-10 3-3 3-3-1 5-4 10-5z" fill="#C3B5B8"/>
<path transform="translate(841,111)" d="m0 0 4 1-2 4h-1l-1 5-8-1 4-2z" fill="#41000B"/>
<path transform="translate(985,886)" d="m0 0h2v19l-2-1-1-17z" fill="#D2D2D2"/>
<path transform="translate(997,835)" d="m0 0 2 1 1 6-4-3-1 5-3 1-1-7 4-2 2 1z" fill="#5E0216"/>
<path transform="translate(918,322)" d="m0 0 2 1 4-1-5 5-3 2-1 3h-2l-1-5z" fill="#E4E4E5"/>
<path transform="translate(965,318)" d="m0 0 9 1-2 3 1 2-8-1-4-2z" fill="#C9BDBF"/>
<path transform="translate(941,313)" d="m0 0 10 2v2l2 2-12-1z" fill="#D9D5D6"/>
<path transform="translate(1202,550)" d="m0 0 3 3 3 5h-10z" fill="#7F0723"/>
<path transform="translate(1086,314)" d="m0 0h3v2h2l-1 3h-2l1 6-2 4h-1z" fill="#DEDBDC"/>
<path transform="translate(918,128)" d="m0 0 7 1 4 2h-8l-1 1 6 1v1h-9v-3z" fill="#EBEBEC"/>
<path transform="translate(764,114)" d="m0 0h1v9l-1-2-2 1-1 4 3 1h-2l-1 4-1-4v-11h3z" fill="#B35565"/>
<path transform="translate(1029,880)" d="m0 0 2 1v17h-3z" fill="#D2D2D2"/>
<path transform="translate(787,606)" d="m0 0 4 1-1 5-7 1 1-5z" fill="#500011"/>
<path transform="translate(957,170)" d="m0 0 2 1-5 10h-2v3l-3 1-1-2 2-1v-3h2l2-5z" fill="#BF3046"/>
<path transform="translate(770,170)" d="m0 0 1 2h4v2h3l1-4 1 6-11-1-3-2v-2z" fill="#C4B5B8"/>
<path transform="translate(364,878)" d="m0 0h2l-1 4-3 5-2-1v-2h-2v-4z" fill="#AF8088"/>
<path transform="translate(1006,828)" d="m0 0 1 3v8l-4-2-1 3-2-5z" fill="#500011"/>
<path transform="translate(899,542)" d="m0 0 8 2-1 3-4 2-2-2h-3v-4z" fill="#BF3046"/>
<path transform="translate(915,117)" d="m0 0 5 1v6l-9-3v-3z" fill="#AB2B42"/>
<path transform="translate(953,106)" d="m0 0 5 1 2 2-1 2 6 1v1l-9-1-4-2z" fill="#93122D"/>
<path transform="translate(684,875)" d="m0 0h8l-1 3-2 3h-4z" fill="#DDD8D9"/>
<path transform="translate(701,449)" d="m0 0h5v2h2v3h-8l-2-4 3 1z" fill="#BF3046"/>
<path transform="translate(974,360)" d="m0 0h2l2 8h-6v-7z" fill="#CDCACA"/>
<path transform="translate(878,138)" d="m0 0h2l1 5-3 7-4 1 3-9z" fill="#500011"/>
<path transform="translate(574,507)" d="m0 0h1l-1 7-3 13-2 1 1-9 3-11z" fill="#AF8088"/>
<path transform="translate(854,251)" d="m0 0 6 5h6l5-3-2 4-4 2h-7l-4-5z" fill="#500011"/>
<path transform="translate(856,159)" d="m0 0 1 3-3 4h-8l2-3z" fill="#500011"/>
<path transform="translate(953,101)" d="m0 0 7 4 3 4-1 2h-3l-1-3-5-2z" fill="#B74154"/>
<path transform="translate(778,676)" d="m0 0 5 1-1 5h-5l-2-3z" fill="#3B0009"/>
<path transform="translate(991,445)" d="m0 0 4 2-2 9h-4l1-9z" fill="#B39EA2"/>
<path transform="translate(936,114)" d="m0 0 1 2-3 10-2-2-7-2v-1l7-1v-2l2-1v-2z" fill="#C9C1C2"/>
<path transform="translate(1279,526)" d="m0 0h7l1 4-3 2v-2l-7-1z" fill="#EDEDEE"/>
<path transform="translate(294,898)" d="m0 0 7 1-1 6-4-1-2-2z" fill="#B5A9AB"/>
<path transform="translate(729,709)" d="m0 0 4 1 2 3v4h-4l-3-6z" fill="#840825"/>
<path transform="translate(831,505)" d="m0 0 1 3-3 6-3 2-3-1 2-1-4-2 6-2z" fill="#49000E"/>
<path transform="translate(809,469)" d="m0 0 2 1-1 7-2 1v-2h-4l-1-4 6-1z" fill="#5C0115"/>
<path transform="translate(825,69)" d="m0 0 10 1 7 1v1h-14l-7-1z" fill="#E8E8E9"/>
<path transform="translate(317,899)" d="m0 0 1 3 3-2-1 6-6-2-2-1 1-3h3zm5 3 1 2-2-1z" fill="#840825"/>
<path transform="translate(996,882)" d="m0 0h4v20h-2l-1-18z" fill="#B6AFB1"/>
<path transform="translate(777,375)" d="m0 0 1 4-2 2h-8v-2l4-3z" fill="#BF3046"/>
<path transform="translate(1110,208)" d="m0 0 4 2v2h-2v3h-3v-2l-3-1z" fill="#BF3046"/>
<path transform="translate(910,130)" d="m0 0 7 1-2 5-7-1z" fill="#AA253D"/>
<path transform="translate(259,916)" d="m0 0 3 2h-2l-2 15-3-4 3-11z" fill="#B6B0B2"/>
<path transform="translate(1069,862)" d="m0 0h2l-1 8-4 2 1-6-3-1z" fill="#840825"/>
<path transform="translate(1250,546)" d="m0 0 2 1-6 7-5 1 1-4z" fill="#B7B6B7"/>
<path transform="translate(794,474)" d="m0 0 5 1 2 4h-3v-2l-5 2-2-4z" fill="#840825"/>
<path transform="translate(761,454)" d="m0 0 4 3v7l-4 1 1-8h-3v-2z" fill="#C4B2B5"/>
<path transform="translate(937,360)" d="m0 0h1v16l2 2-5-1z" fill="#B39CA0"/>
<path transform="translate(784,204)" d="m0 0 6 2 2 1-4 4h-4z" fill="#840825"/>
<path transform="translate(1320,559)" d="m0 0 3 3-2 6h2l-1 5-2 2z" fill="#D2D2D2"/>
<path transform="translate(887,209)" d="m0 0 4 1-2 1v2l2 1-3 2 1 2-4-1v-5h2z" fill="#E4E2E3"/>
<path transform="translate(945,99)" d="m0 0h1l-1 9-1-2-4-1v-5l4 1z" fill="#AF4C5D"/>
<path transform="translate(965,870)" d="m0 0h2v11h-2l-1-2v-8z" fill="#CECBCC"/>
<path transform="translate(1026,858)" d="m0 0 2 1v10h-3v-8z" fill="#D1D1D1"/>
<path transform="translate(1201,568)" d="m0 0h6l6 5-3 1-3-1v-2l-6-1z" fill="#BBBABB"/>
<path transform="translate(629,546)" d="m0 0h2l-1 7-1 3h-2l-1-5z" fill="#D2CACC"/>
<path transform="translate(790,470)" d="m0 0 6 3-4 3-1 2-3-4v-3z" fill="#500011"/>
<path transform="translate(450,414)" d="m0 0 4 4-1 5h-2l-2-4z" fill="#D2D2D2"/>
<path transform="translate(577,247)" d="m0 0h3l5 10v2l-4-2z" fill="#C5BCBD"/>
<path transform="translate(905,164)" d="m0 0 7 2-4 2 3 2h-7l-1-2z" fill="#E9E9EA"/>
<path transform="translate(909,67)" d="m0 0h5v3l-6-1-1 2-7 1 1-3z" fill="#BC3D51"/>
<path transform="translate(1030,859)" d="m0 0h2v7l-1 5-2-1v-10z" fill="#D1D1D1"/>
<path transform="translate(620,587)" d="m0 0h1v5l-4 4-2-1 1-4z" fill="#E7E5E6"/>
<path transform="translate(797,362)" d="m0 0 2 4-1 13-2-1v-12z" fill="#500011"/>
<path transform="translate(779,327)" d="m0 0 3 1-1 5h-2l1 3-4 1-2-3 4-2z" fill="#923147"/>
<path transform="translate(1451,52)" d="m0 0 4 1v5l-2 1-3-1v-5z" fill="#B7B6B7"/>
<path transform="translate(973,868)" d="m0 0h2v10h-3v-8z" fill="#D2D2D2"/>
<path transform="translate(725,787)" d="m0 0 3 1 2 8-2 1-3-4z" fill="#3B0009"/>
<path transform="translate(338,703)" d="m0 0 5 1v4h-4l-2-4z" fill="#EDEDEE"/>
<path transform="translate(735,588)" d="m0 0h2l2 3-1 5-4-2z" fill="#B9A8AC"/>
<path transform="translate(596,226)" d="m0 0h2l1 4-4 3-3-3 2-1v-2z" fill="#BC2E44"/>
<path transform="translate(784,198)" d="m0 0 4 2-1 4 5-1v3l-4 1-3-2z" fill="#BA9EA3"/>
<path transform="translate(892,178)" d="m0 0 7 2-2 5-6-1 2-3z" fill="#AD2A41"/>
<path transform="translate(956,872)" d="m0 0h3v9h-3z" fill="#D1D0D1"/>
<path transform="translate(977,867)" d="m0 0h2v10h-3v-7z" fill="#D2D2D2"/>
<path transform="translate(1088,833)" d="m0 0 3 1-3 5-4-1-1-3z" fill="#500011"/>
<path transform="translate(821,489)" d="m0 0h3v2l5 2v2l-4-1v-2l-7 1 1-3z" fill="#500011"/>
<path transform="translate(624,348)" d="m0 0h2l3 6v13h-1l-1-11z" fill="#500011"/>
<path transform="translate(941,348)" d="m0 0h1v11l-4-1 1-7z" fill="#B4A8AA"/>
<path transform="translate(942,119)" d="m0 0h7l-3 3 2 1v2l-6-1-1-2h2z" fill="#ECECEC"/>
<path transform="translate(953,872)" d="m0 0h2v9h-3v-8z" fill="#D2D2D2"/>
<path transform="translate(961,871)" d="m0 0h2v9h-3v-8z" fill="#D2D2D2"/>
<path transform="translate(981,866)" d="m0 0 2 1v10l-3-1v-8z" fill="#D0D0D0"/>
<path transform="translate(996,423)" d="m0 0h1v7l-1 4h-2v-9z" fill="#C8C4C5"/>
<path transform="translate(803,193)" d="m0 0 2 1-1 7-2-2-5-1v-2l6-1z" fill="#BF3046"/>
<path transform="translate(762,142)" d="m0 0h3v9h-2l-2-8z" fill="#AF253D"/>
</svg>
